<svg width="40" height="30" viewBox="0 0 40 30" fill="none" xmlns="http://www.w3.org/2000/svg">
<rect width="40" height="30" rx="2.75862" fill="#FF090B"/>
<path d="M1.96664 11V4.67273H4.7101C5.19206 4.67273 5.59679 4.73761 5.92427 4.86737C6.25382 4.99712 6.50201 5.18043 6.66884 5.41729C6.83773 5.65415 6.92218 5.93324 6.92218 6.25455C6.92218 6.48729 6.87069 6.69943 6.7677 6.89098C6.66678 7.08253 6.52466 7.24318 6.34135 7.37294C6.15805 7.50064 5.94384 7.5892 5.69874 7.63864V7.70043C5.97062 7.71072 6.21778 7.77972 6.44022 7.90742C6.66266 8.03306 6.83979 8.2071 6.97161 8.42955C7.10343 8.64993 7.16934 8.90945 7.16934 9.2081C7.16934 9.55412 7.07871 9.86204 6.89746 10.1319C6.71827 10.4017 6.46287 10.6138 6.13127 10.7683C5.79966 10.9228 5.40421 11 4.94491 11H1.96664ZM3.68439 9.62827H4.48766C4.77601 9.62827 4.99228 9.57472 5.13645 9.46761C5.28063 9.35845 5.35272 9.1978 5.35272 8.98565C5.35272 8.83736 5.31873 8.71172 5.25077 8.60874C5.1828 8.50575 5.08599 8.42749 4.96035 8.37393C4.83677 8.32038 4.68745 8.29361 4.51238 8.29361H3.68439V9.62827ZM3.68439 7.23082H4.3888C4.53915 7.23082 4.672 7.20714 4.78734 7.15977C4.90268 7.11239 4.99228 7.04442 5.05613 6.95586C5.12204 6.86523 5.15499 6.75504 5.15499 6.62528C5.15499 6.42962 5.08496 6.28029 4.94491 6.17731C4.80485 6.07227 4.62772 6.01974 4.41351 6.01974H3.68439V7.23082ZM7.59291 4.67273H9.31067V7.98466H9.3601L11.6092 4.67273H13.0675V11H11.3497V7.67571H11.3127L9.02644 11H7.59291V4.67273ZM18.1438 4.67273V6.05682H15.4127V11H13.695V4.67273H18.1438ZM24.4313 7.83636C24.4313 8.54077 24.2943 9.13498 24.0204 9.619C23.7464 10.101 23.3767 10.4665 22.9112 10.7158C22.4457 10.9629 21.9267 11.0865 21.3541 11.0865C20.7774 11.0865 20.2563 10.9619 19.7908 10.7127C19.3274 10.4614 18.9587 10.0948 18.6848 9.61282C18.4129 9.1288 18.277 8.53665 18.277 7.83636C18.277 7.13196 18.4129 6.53878 18.6848 6.05682C18.9587 5.5728 19.3274 5.20721 19.7908 4.96005C20.2563 4.71083 20.7774 4.58622 21.3541 4.58622C21.9267 4.58622 22.4457 4.71083 22.9112 4.96005C23.3767 5.20721 23.7464 5.5728 24.0204 6.05682C24.2943 6.53878 24.4313 7.13196 24.4313 7.83636ZM22.6641 7.83636C22.6641 7.45739 22.6136 7.13814 22.5127 6.87862C22.4138 6.61705 22.2666 6.41932 22.0709 6.28544C21.8773 6.1495 21.6384 6.08153 21.3541 6.08153C21.0699 6.08153 20.8299 6.1495 20.6343 6.28544C20.4407 6.41932 20.2934 6.61705 20.1925 6.87862C20.0936 7.13814 20.0442 7.45739 20.0442 7.83636C20.0442 8.21534 20.0936 8.53562 20.1925 8.79719C20.2934 9.05671 20.4407 9.25444 20.6343 9.39038C20.8299 9.52425 21.0699 9.59119 21.3541 9.59119C21.6384 9.59119 21.8773 9.52425 22.0709 9.39038C22.2666 9.25444 22.4138 9.05671 22.5127 8.79719C22.6136 8.53562 22.6641 8.21534 22.6641 7.83636ZM24.8309 12.52V9.6777H25.2758C25.4241 9.58707 25.5579 9.45937 25.6774 9.2946C25.7989 9.12983 25.9019 8.894 25.9864 8.58711C26.0729 8.28022 26.1367 7.86932 26.1779 7.3544L26.388 4.67273H30.8616V9.6777H31.5289V12.52H29.8729V11H26.4869V12.52H24.8309ZM27.2407 9.6777H29.2056V6.05682H27.9327L27.8339 7.3544C27.805 7.74162 27.7608 8.08043 27.701 8.37085C27.6434 8.6592 27.5744 8.91048 27.494 9.12468C27.4158 9.33683 27.3313 9.52116 27.2407 9.6777ZM33.5683 11H31.7146L33.8031 4.67273H36.1511L38.2396 11H36.3859L35.0018 6.4152H34.9524L33.5683 11ZM33.2223 8.50369H36.7072V9.78892H33.2223V8.50369Z" fill="white"/>
<path d="M2.40812 19.7547V14.1369H7.51378V16.3095H4.42555V17.3958C4.70489 17.282 4.98423 17.2251 5.26356 17.2251C6.11192 17.2251 6.76888 17.52 7.23444 18.1097C7.7 18.6994 7.93278 19.4909 7.93278 20.484V21.9738C7.93278 22.4704 7.85519 22.9205 7.7 23.324C7.55516 23.7275 7.34825 24.0689 7.07925 24.3482C6.82061 24.6276 6.51023 24.8448 6.14813 25C5.79637 25.1552 5.4084 25.2328 4.98423 25.2328C4.56005 25.2328 4.16691 25.1552 3.8048 25C3.45304 24.8448 3.14267 24.6276 2.87368 24.3482C2.61503 24.0689 2.40812 23.7275 2.25293 23.324C2.10809 22.9205 2.03567 22.4704 2.03567 21.9738V21.1824H4.27036V21.9738C4.27036 22.2842 4.32727 22.5429 4.44107 22.7498C4.56522 22.9567 4.74627 23.0602 4.98423 23.0602C5.22218 23.0602 5.39806 22.9567 5.51186 22.7498C5.63601 22.5429 5.69809 22.2842 5.69809 21.9738V20.484C5.69809 20.1737 5.63601 19.915 5.51186 19.7081C5.39806 19.5012 5.22218 19.3977 4.98423 19.3977C4.74627 19.3977 4.56005 19.5167 4.42555 19.7547H2.40812ZM18.2765 21.9738C18.2765 22.4704 18.1989 22.9205 18.0437 23.324C17.8989 23.7275 17.692 24.0689 17.423 24.3482C17.1643 24.6276 16.854 24.8448 16.4918 25C16.1401 25.1552 15.7521 25.2328 15.3279 25.2328C14.9038 25.2328 14.5106 25.1552 14.1485 25C13.7968 24.8448 13.4864 24.6276 13.2174 24.3482C12.9588 24.0689 12.7518 23.7275 12.5966 23.324C12.4518 22.9205 12.3794 22.4704 12.3794 21.9738V17.163C12.3794 16.6664 12.4518 16.2164 12.5966 15.8129C12.7518 15.4094 12.9588 15.068 13.2174 14.7887C13.4864 14.5093 13.7968 14.2921 14.1485 14.1369C14.5106 13.9817 14.9038 13.9041 15.3279 13.9041C15.7521 13.9041 16.1401 13.9817 16.4918 14.1369C16.854 14.2921 17.1643 14.5093 17.423 14.7887C17.692 15.068 17.8989 15.4094 18.0437 15.8129C18.1989 16.2164 18.2765 16.6664 18.2765 17.163V21.9738ZM14.6141 21.9738C14.6141 22.2842 14.671 22.5429 14.7848 22.7498C14.9089 22.9567 15.09 23.0602 15.3279 23.0602C15.5659 23.0602 15.7418 22.9567 15.8556 22.7498C15.9797 22.5429 16.0418 22.2842 16.0418 21.9738V17.163C16.0418 16.8527 15.9797 16.594 15.8556 16.3871C15.7418 16.1802 15.5659 16.0767 15.3279 16.0767C15.09 16.0767 14.9089 16.1802 14.7848 16.3871C14.671 16.594 14.6141 16.8527 14.6141 17.163V21.9738ZM25.7328 21.9738C25.7328 22.4704 25.6552 22.9205 25.5 23.324C25.3551 23.7275 25.1482 24.0689 24.8792 24.3482C24.6206 24.6276 24.3102 24.8448 23.9481 25C23.5964 25.1552 23.2084 25.2328 22.7842 25.2328C22.36 25.2328 21.9669 25.1552 21.6048 25C21.253 24.8448 20.9427 24.6276 20.6737 24.3482C20.415 24.0689 20.2081 23.7275 20.0529 23.324C19.9081 22.9205 19.8356 22.4704 19.8356 21.9738V17.163C19.8356 16.6664 19.9081 16.2164 20.0529 15.8129C20.2081 15.4094 20.415 15.068 20.6737 14.7887C20.9427 14.5093 21.253 14.2921 21.6048 14.1369C21.9669 13.9817 22.36 13.9041 22.7842 13.9041C23.2084 13.9041 23.5964 13.9817 23.9481 14.1369C24.3102 14.2921 24.6206 14.5093 24.8792 14.7887C25.1482 15.068 25.3551 15.4094 25.5 15.8129C25.6552 16.2164 25.7328 16.6664 25.7328 17.163V21.9738ZM22.0703 21.9738C22.0703 22.2842 22.1272 22.5429 22.2411 22.7498C22.3652 22.9567 22.5463 23.0602 22.7842 23.0602C23.0222 23.0602 23.198 22.9567 23.3118 22.7498C23.436 22.5429 23.4981 22.2842 23.4981 21.9738V17.163C23.4981 16.8527 23.436 16.594 23.3118 16.3871C23.198 16.1802 23.0222 16.0767 22.7842 16.0767C22.5463 16.0767 22.3652 16.1802 22.2411 16.3871C22.1272 16.594 22.0703 16.8527 22.0703 17.163V21.9738ZM33.189 21.9738C33.189 22.4704 33.1114 22.9205 32.9562 23.324C32.8114 23.7275 32.6045 24.0689 32.3355 24.3482C32.0769 24.6276 31.7665 24.8448 31.4044 25C31.0526 25.1552 30.6646 25.2328 30.2405 25.2328C29.8163 25.2328 29.4232 25.1552 29.061 25C28.7093 24.8448 28.3989 24.6276 28.1299 24.3482C27.8713 24.0689 27.6644 23.7275 27.5092 23.324C27.3643 22.9205 27.2919 22.4704 27.2919 21.9738V17.163C27.2919 16.6664 27.3643 16.2164 27.5092 15.8129C27.6644 15.4094 27.8713 15.068 28.1299 14.7887C28.3989 14.5093 28.7093 14.2921 29.061 14.1369C29.4232 13.9817 29.8163 13.9041 30.2405 13.9041C30.6646 13.9041 31.0526 13.9817 31.4044 14.1369C31.7665 14.2921 32.0769 14.5093 32.3355 14.7887C32.6045 15.068 32.8114 15.4094 32.9562 15.8129C33.1114 16.2164 33.189 16.6664 33.189 17.163V21.9738ZM29.5266 21.9738C29.5266 22.2842 29.5835 22.5429 29.6973 22.7498C29.8215 22.9567 30.0025 23.0602 30.2405 23.0602C30.4784 23.0602 30.6543 22.9567 30.7681 22.7498C30.8923 22.5429 30.9543 22.2842 30.9543 21.9738V17.163C30.9543 16.8527 30.8923 16.594 30.7681 16.3871C30.6543 16.1802 30.4784 16.0767 30.2405 16.0767C30.0025 16.0767 29.8215 16.1802 29.6973 16.3871C29.5835 16.594 29.5266 16.8527 29.5266 17.163V21.9738ZM37.7031 22.1347V22.8878H35.6862C35.6054 23.0379 35.565 23.1937 35.565 23.3553V23.4419C35.565 23.5977 35.5996 23.7246 35.6689 23.8227C35.7381 23.9151 35.8362 23.9612 35.9632 23.9612C36.0959 23.9612 36.194 23.9064 36.2575 23.7968C36.3268 23.6871 36.3614 23.54 36.3614 23.3553H37.6079C37.6079 23.6323 37.5646 23.8833 37.4781 24.1084C37.3973 24.3335 37.2819 24.5239 37.1318 24.6797C36.9875 24.8355 36.8144 24.9567 36.6124 25.0433C36.4162 25.1298 36.1998 25.1731 35.9632 25.1731C35.7266 25.1731 35.5073 25.1298 35.3053 25.0433C35.1091 24.9625 34.936 24.8528 34.7859 24.7143C34.6417 24.5701 34.5262 24.4027 34.4397 24.2123C34.3589 24.0218 34.3185 23.8227 34.3185 23.615V23.5977C34.3185 23.4707 34.3358 23.3495 34.3704 23.2341C34.4108 23.1187 34.4628 23.0033 34.5262 22.8878H34.2752V22.1347H35.2188L35.5823 21.8058H34.2752V21.0527H36.2835C36.3239 20.9777 36.3556 20.9026 36.3787 20.8276C36.4018 20.7468 36.4133 20.666 36.4133 20.5852V20.4987C36.4133 20.3429 36.3787 20.2188 36.3095 20.1265C36.2402 20.0283 36.1421 19.9793 36.0151 19.9793C35.8824 19.9793 35.7814 20.0341 35.7122 20.1438C35.6487 20.2534 35.617 20.4006 35.617 20.5852H34.3704C34.3704 20.3082 34.4108 20.0572 34.4916 19.8321C34.5782 19.6071 34.6936 19.4166 34.8379 19.2608C34.9879 19.105 35.1611 18.9838 35.3573 18.8972C35.5592 18.8107 35.7785 18.7674 36.0151 18.7674C36.2518 18.7674 36.4682 18.8107 36.6644 18.8972C36.8664 18.978 37.0395 19.0906 37.1838 19.2348C37.3338 19.3733 37.4492 19.5378 37.53 19.7283C37.6166 19.9187 37.6599 20.1178 37.6599 20.3256V20.3429C37.6599 20.4756 37.6397 20.5997 37.5993 20.7151C37.5589 20.8305 37.504 20.943 37.4348 21.0527H37.7031V21.8058H36.7509L36.396 22.1347H37.7031Z" fill="white"/>
</svg>
