<svg width="40" height="30" viewBox="0 0 40 30" fill="none" xmlns="http://www.w3.org/2000/svg">
<rect width="40" height="30" rx="2.75862" fill="#FF090B"/>
<path d="M1.96664 11V4.67273H4.7101C5.19206 4.67273 5.59679 4.73761 5.92427 4.86737C6.25382 4.99712 6.50201 5.18043 6.66884 5.41729C6.83773 5.65415 6.92218 5.93324 6.92218 6.25455C6.92218 6.48729 6.87069 6.69943 6.7677 6.89098C6.66678 7.08253 6.52466 7.24318 6.34135 7.37294C6.15805 7.50064 5.94384 7.5892 5.69874 7.63864V7.70043C5.97062 7.71072 6.21778 7.77972 6.44022 7.90742C6.66266 8.03306 6.83979 8.2071 6.97161 8.42955C7.10343 8.64993 7.16934 8.90945 7.16934 9.2081C7.16934 9.55412 7.07871 9.86204 6.89746 10.1319C6.71827 10.4017 6.46287 10.6138 6.13127 10.7683C5.79966 10.9228 5.40421 11 4.94491 11H1.96664ZM3.68439 9.62827H4.48766C4.77601 9.62827 4.99228 9.57472 5.13645 9.46761C5.28063 9.35845 5.35272 9.1978 5.35272 8.98565C5.35272 8.83736 5.31873 8.71172 5.25077 8.60874C5.1828 8.50575 5.08599 8.42749 4.96035 8.37393C4.83677 8.32038 4.68745 8.29361 4.51238 8.29361H3.68439V9.62827ZM3.68439 7.23082H4.3888C4.53915 7.23082 4.672 7.20714 4.78734 7.15977C4.90268 7.11239 4.99228 7.04442 5.05613 6.95586C5.12204 6.86523 5.15499 6.75504 5.15499 6.62528C5.15499 6.42962 5.08496 6.28029 4.94491 6.17731C4.80485 6.07227 4.62772 6.01974 4.41351 6.01974H3.68439V7.23082ZM7.59291 4.67273H9.31067V7.98466H9.3601L11.6092 4.67273H13.0675V11H11.3497V7.67571H11.3127L9.02644 11H7.59291V4.67273ZM18.1438 4.67273V6.05682H15.4127V11H13.695V4.67273H18.1438ZM24.4313 7.83636C24.4313 8.54077 24.2943 9.13498 24.0204 9.619C23.7464 10.101 23.3767 10.4665 22.9112 10.7158C22.4457 10.9629 21.9267 11.0865 21.3541 11.0865C20.7774 11.0865 20.2563 10.9619 19.7908 10.7127C19.3274 10.4614 18.9587 10.0948 18.6848 9.61282C18.4129 9.1288 18.277 8.53665 18.277 7.83636C18.277 7.13196 18.4129 6.53878 18.6848 6.05682C18.9587 5.5728 19.3274 5.20721 19.7908 4.96005C20.2563 4.71083 20.7774 4.58622 21.3541 4.58622C21.9267 4.58622 22.4457 4.71083 22.9112 4.96005C23.3767 5.20721 23.7464 5.5728 24.0204 6.05682C24.2943 6.53878 24.4313 7.13196 24.4313 7.83636ZM22.6641 7.83636C22.6641 7.45739 22.6136 7.13814 22.5127 6.87862C22.4138 6.61705 22.2666 6.41932 22.0709 6.28544C21.8773 6.1495 21.6384 6.08153 21.3541 6.08153C21.0699 6.08153 20.8299 6.1495 20.6343 6.28544C20.4407 6.41932 20.2934 6.61705 20.1925 6.87862C20.0936 7.13814 20.0442 7.45739 20.0442 7.83636C20.0442 8.21534 20.0936 8.53562 20.1925 8.79719C20.2934 9.05671 20.4407 9.25444 20.6343 9.39038C20.8299 9.52425 21.0699 9.59119 21.3541 9.59119C21.6384 9.59119 21.8773 9.52425 22.0709 9.39038C22.2666 9.25444 22.4138 9.05671 22.5127 8.79719C22.6136 8.53562 22.6641 8.21534 22.6641 7.83636ZM24.8309 12.52V9.6777H25.2758C25.4241 9.58707 25.5579 9.45937 25.6774 9.2946C25.7989 9.12983 25.9019 8.894 25.9864 8.58711C26.0729 8.28022 26.1367 7.86932 26.1779 7.3544L26.388 4.67273H30.8616V9.6777H31.5289V12.52H29.8729V11H26.4869V12.52H24.8309ZM27.2407 9.6777H29.2056V6.05682H27.9327L27.8339 7.3544C27.805 7.74162 27.7608 8.08043 27.701 8.37085C27.6434 8.6592 27.5744 8.91048 27.494 9.12468C27.4158 9.33683 27.3313 9.52116 27.2407 9.6777ZM33.5683 11H31.7146L33.8031 4.67273H36.1511L38.2396 11H36.3859L35.0018 6.4152H34.9524L33.5683 11ZM33.2223 8.50369H36.7072V9.78892H33.2223V8.50369Z" fill="white"/>
<path d="M2.24178 16.8527C2.24178 16.4078 2.30902 16.0043 2.44352 15.6422C2.58836 15.2801 2.78493 14.9697 3.03323 14.7111C3.29188 14.4524 3.5919 14.2559 3.93332 14.1214C4.27473 13.9765 4.64718 13.9041 5.05067 13.9041C5.45415 13.9041 5.8266 13.9765 6.16801 14.1214C6.50943 14.2559 6.80428 14.4524 7.05258 14.7111C7.30088 14.9697 7.49228 15.2801 7.62677 15.6422C7.77162 16.0043 7.84404 16.4078 7.84404 16.8527V17.1475C7.84404 17.6338 7.76127 18.058 7.59574 18.4201C7.4302 18.7822 7.2026 19.0822 6.91291 19.3201C7.24398 19.5684 7.5078 19.8943 7.70437 20.2978C7.90094 20.691 7.99922 21.1617 7.99922 21.71V22.129C7.99922 22.6049 7.92163 23.0343 7.76644 23.4171C7.6216 23.7999 7.41469 24.1258 7.14569 24.3948C6.88705 24.6638 6.57667 24.8707 6.21457 25.0155C5.86281 25.1604 5.47484 25.2328 5.05067 25.2328C4.62649 25.2328 4.23335 25.1604 3.87124 25.0155C3.51948 24.8707 3.20911 24.6638 2.94012 24.3948C2.68147 24.1258 2.47456 23.7999 2.31937 23.4171C2.17453 23.0343 2.10211 22.6049 2.10211 22.129V21.71C2.10211 21.1617 2.19522 20.691 2.38144 20.2978C2.57801 19.8943 2.84183 19.5684 3.1729 19.3201C2.88322 19.0822 2.65561 18.7822 2.49008 18.4201C2.32454 18.058 2.24178 17.6338 2.24178 17.1475V16.8527ZM4.3368 21.9738C4.3368 22.2842 4.39371 22.5429 4.50751 22.7498C4.63166 22.9567 4.81271 23.0602 5.05067 23.0602C5.28862 23.0602 5.4645 22.9567 5.5783 22.7498C5.70245 22.5429 5.76453 22.2842 5.76453 21.9738V21.4462C5.76453 21.1358 5.70245 20.8772 5.5783 20.6703C5.4645 20.4634 5.28862 20.3599 5.05067 20.3599C4.81271 20.3599 4.63166 20.4634 4.50751 20.6703C4.39371 20.8772 4.3368 21.1358 4.3368 21.4462V21.9738ZM5.6559 17.0079C5.6559 16.7285 5.60417 16.4957 5.50071 16.3095C5.39725 16.1233 5.24724 16.0302 5.05067 16.0302C4.84375 16.0302 4.68856 16.1233 4.5851 16.3095C4.49199 16.4957 4.44544 16.7285 4.44544 17.0079V17.3803C4.44544 17.6596 4.49199 17.8924 4.5851 18.0786C4.68856 18.2649 4.84375 18.358 5.05067 18.358C5.24724 18.358 5.39725 18.2649 5.50071 18.0786C5.60417 17.8924 5.6559 17.6596 5.6559 17.3803V17.0079ZM18.4584 21.9738C18.4584 22.4704 18.3808 22.9205 18.2256 23.324C18.0807 23.7275 17.8738 24.0689 17.6048 24.3482C17.3462 24.6276 17.0358 24.8448 16.6737 25C16.322 25.1552 15.934 25.2328 15.5098 25.2328C15.0856 25.2328 14.6925 25.1552 14.3304 25C13.9786 24.8448 13.6682 24.6276 13.3993 24.3482C13.1406 24.0689 12.9337 23.7275 12.7785 23.324C12.6337 22.9205 12.5612 22.4704 12.5612 21.9738V17.163C12.5612 16.6664 12.6337 16.2164 12.7785 15.8129C12.9337 15.4094 13.1406 15.068 13.3993 14.7887C13.6682 14.5093 13.9786 14.2921 14.3304 14.1369C14.6925 13.9817 15.0856 13.9041 15.5098 13.9041C15.934 13.9041 16.322 13.9817 16.6737 14.1369C17.0358 14.2921 17.3462 14.5093 17.6048 14.7887C17.8738 15.068 18.0807 15.4094 18.2256 15.8129C18.3808 16.2164 18.4584 16.6664 18.4584 17.163V21.9738ZM14.7959 21.9738C14.7959 22.2842 14.8528 22.5429 14.9666 22.7498C15.0908 22.9567 15.2718 23.0602 15.5098 23.0602C15.7478 23.0602 15.9236 22.9567 16.0374 22.7498C16.1616 22.5429 16.2237 22.2842 16.2237 21.9738V17.163C16.2237 16.8527 16.1616 16.594 16.0374 16.3871C15.9236 16.1802 15.7478 16.0767 15.5098 16.0767C15.2718 16.0767 15.0908 16.1802 14.9666 16.3871C14.8528 16.594 14.7959 16.8527 14.7959 17.163V21.9738ZM25.9146 21.9738C25.9146 22.4704 25.837 22.9205 25.6818 23.324C25.537 23.7275 25.3301 24.0689 25.0611 24.3482C24.8024 24.6276 24.4921 24.8448 24.13 25C23.7782 25.1552 23.3902 25.2328 22.9661 25.2328C22.5419 25.2328 22.1487 25.1552 21.7866 25C21.4349 24.8448 21.1245 24.6276 20.8555 24.3482C20.5969 24.0689 20.39 23.7275 20.2348 23.324C20.0899 22.9205 20.0175 22.4704 20.0175 21.9738V17.163C20.0175 16.6664 20.0899 16.2164 20.2348 15.8129C20.39 15.4094 20.5969 15.068 20.8555 14.7887C21.1245 14.5093 21.4349 14.2921 21.7866 14.1369C22.1487 13.9817 22.5419 13.9041 22.9661 13.9041C23.3902 13.9041 23.7782 13.9817 24.13 14.1369C24.4921 14.2921 24.8024 14.5093 25.0611 14.7887C25.3301 15.068 25.537 15.4094 25.6818 15.8129C25.837 16.2164 25.9146 16.6664 25.9146 17.163V21.9738ZM22.2522 21.9738C22.2522 22.2842 22.3091 22.5429 22.4229 22.7498C22.5471 22.9567 22.7281 23.0602 22.9661 23.0602C23.204 23.0602 23.3799 22.9567 23.4937 22.7498C23.6179 22.5429 23.6799 22.2842 23.6799 21.9738V17.163C23.6799 16.8527 23.6179 16.594 23.4937 16.3871C23.3799 16.1802 23.204 16.0767 22.9661 16.0767C22.7281 16.0767 22.5471 16.1802 22.4229 16.3871C22.3091 16.594 22.2522 16.8527 22.2522 17.163V21.9738ZM33.3709 21.9738C33.3709 22.4704 33.2933 22.9205 33.1381 23.324C32.9933 23.7275 32.7864 24.0689 32.5174 24.3482C32.2587 24.6276 31.9483 24.8448 31.5862 25C31.2345 25.1552 30.8465 25.2328 30.4223 25.2328C29.9982 25.2328 29.605 25.1552 29.2429 25C28.8911 24.8448 28.5808 24.6276 28.3118 24.3482C28.0531 24.0689 27.8462 23.7275 27.691 23.324C27.5462 22.9205 27.4738 22.4704 27.4738 21.9738V17.163C27.4738 16.6664 27.5462 16.2164 27.691 15.8129C27.8462 15.4094 28.0531 15.068 28.3118 14.7887C28.5808 14.5093 28.8911 14.2921 29.2429 14.1369C29.605 13.9817 29.9982 13.9041 30.4223 13.9041C30.8465 13.9041 31.2345 13.9817 31.5862 14.1369C31.9483 14.2921 32.2587 14.5093 32.5174 14.7887C32.7864 15.068 32.9933 15.4094 33.1381 15.8129C33.2933 16.2164 33.3709 16.6664 33.3709 17.163V21.9738ZM29.7085 21.9738C29.7085 22.2842 29.7654 22.5429 29.8792 22.7498C30.0033 22.9567 30.1844 23.0602 30.4223 23.0602C30.6603 23.0602 30.8362 22.9567 30.95 22.7498C31.0741 22.5429 31.1362 22.2842 31.1362 21.9738V17.163C31.1362 16.8527 31.0741 16.594 30.95 16.3871C30.8362 16.1802 30.6603 16.0767 30.4223 16.0767C30.1844 16.0767 30.0033 16.1802 29.8792 16.3871C29.7654 16.594 29.7085 16.8527 29.7085 17.163V21.9738ZM37.885 22.1347V22.8878H35.8681C35.7873 23.0379 35.7469 23.1937 35.7469 23.3553V23.4419C35.7469 23.5977 35.7815 23.7246 35.8508 23.8227C35.92 23.9151 36.0181 23.9612 36.1451 23.9612C36.2778 23.9612 36.3759 23.9064 36.4394 23.7968C36.5086 23.6871 36.5433 23.54 36.5433 23.3553H37.7898C37.7898 23.6323 37.7465 23.8833 37.6599 24.1084C37.5791 24.3335 37.4637 24.5239 37.3137 24.6797C37.1694 24.8355 36.9963 24.9567 36.7943 25.0433C36.5981 25.1298 36.3817 25.1731 36.1451 25.1731C35.9085 25.1731 35.6892 25.1298 35.4872 25.0433C35.291 24.9625 35.1178 24.8528 34.9678 24.7143C34.8235 24.5701 34.7081 24.4027 34.6215 24.2123C34.5408 24.0218 34.5004 23.8227 34.5004 23.615V23.5977C34.5004 23.4707 34.5177 23.3495 34.5523 23.2341C34.5927 23.1187 34.6446 23.0033 34.7081 22.8878H34.4571V22.1347H35.4006L35.7642 21.8058H34.4571V21.0527H36.4654C36.5058 20.9777 36.5375 20.9026 36.5606 20.8276C36.5837 20.7468 36.5952 20.666 36.5952 20.5852V20.4987C36.5952 20.3429 36.5606 20.2188 36.4913 20.1265C36.4221 20.0283 36.324 19.9793 36.197 19.9793C36.0643 19.9793 35.9633 20.0341 35.894 20.1438C35.8306 20.2534 35.7988 20.4006 35.7988 20.5852H34.5523C34.5523 20.3082 34.5927 20.0572 34.6735 19.8321C34.76 19.6071 34.8755 19.4166 35.0197 19.2608C35.1698 19.105 35.3429 18.9838 35.5391 18.8972C35.7411 18.8107 35.9604 18.7674 36.197 18.7674C36.4336 18.7674 36.65 18.8107 36.8462 18.8972C37.0482 18.978 37.2213 19.0906 37.3656 19.2348C37.5157 19.3733 37.6311 19.5378 37.7119 19.7283C37.7984 19.9187 37.8417 20.1178 37.8417 20.3256V20.3429C37.8417 20.4756 37.8215 20.5997 37.7811 20.7151C37.7407 20.8305 37.6859 20.943 37.6167 21.0527H37.885V21.8058H36.9328L36.5779 22.1347H37.885Z" fill="white"/>
</svg>
